<svg xmlns="http://www.w3.org/2000/svg" xmlns:xlink="http://www.w3.org/1999/xlink" xmlns:lucid="lucid" width="1372.57" height="1153"><g transform="translate(-257.08641975308643 -101.41732283464557)" lucid:page-tab-id="0_0"><path d="M1143.62 662.83h-46.08c-.94 0-1.68-.77-1.68-1.68v-61.3c0-.92.74-1.7 1.68-1.7h46.08c.94 0 1.68.78 1.68 1.7v61.3c0 .9-.74 1.68-1.68 1.68zm-44.35-3.42h42.62V601.6h-42.63z" stroke="#fff" stroke-opacity="0" fill="#d86613"/><path d="M1111.6 616.88h-7.66c-.94 0-1.7-.77-1.7-1.7v-7.66c0-.94.76-1.7 1.7-1.7h7.67c.95 0 1.7.76 1.7 1.7v7.65c0 .94-.75 1.7-1.7 1.7zm-5.95-3.4h4.25v-4.26h-4.25zM1111.6 634.75h-7.66c-.94 0-1.7-.76-1.7-1.7v-7.66c0-.95.76-1.7 1.7-1.7h7.67c.95 0 1.7.75 1.7 1.7v7.65c0 .94-.75 1.7-1.7 1.7zm-5.95-3.4h4.25v-4.26h-4.25zM1111.6 652.64h-7.66c-.94 0-1.7-.77-1.7-1.7v-7.68c0-.94.76-1.7 1.7-1.7h7.67c.95 0 1.7.76 1.7 1.7v7.67c0 .94-.75 1.7-1.7 1.7zm-5.95-3.4h4.25v-4.28h-4.25zM1115.46 609.64h23.04v3.4h-23.04v-3.4zM1115.46 627.5h23.04v3.4h-23.04v-3.4zM1115.46 645.4h23.04v3.4h-23.04v-3.4z" stroke="#fff" stroke-opacity="0" fill="#d86613"/><path d="M1097.58 655.18h-7.72c-.93 0-1.68-.78-1.68-1.7v-61.3c0-.9.75-1.7 1.68-1.7h46.1c.93 0 1.67.8 1.67 1.7v7.7h-3.4v-5.96h-42.63v57.83h5.98z" stroke="#fff" stroke-opacity="0" fill="#d86613"/><path d="M1089.4 647.53h-7.72c-.94 0-1.68-.77-1.68-1.68v-61.33c0-.9.74-1.7 1.68-1.7h46.08c.94 0 1.68.8 1.68 1.7v7.7h-3.4v-5.96h-42.63v57.84h6z" stroke="#fff" stroke-opacity="0" fill="#d86613"/><path d="M1097.58 655.18h-7.72c-.93 0-1.68-.78-1.68-1.7v-61.3c0-.9.75-1.7 1.68-1.7h46.1c.93 0 1.67.8 1.67 1.7v63z" stroke="#fff" stroke-opacity="0" fill="#fff" fill-opacity="0"/><path d="M1089.4 647.53h-7.72c-.94 0-1.68-.77-1.68-1.68v-61.33c0-.9.74-1.7 1.68-1.7h46.08c.94 0 1.68.8 1.68 1.7v63z" stroke="#fff" stroke-opacity="0" fill="#fff" fill-opacity="0"/><use xlink:href="#a" transform="matrix(1,0,0,1,1050,671.8346456692911) translate(8.7716049382716 17.77777777777778)"/><use xlink:href="#b" transform="matrix(1,0,0,1,1050,671.8346456692911) translate(-3.574074074074076 44.44444444444444)"/><use xlink:href="#c" transform="matrix(1,0,0,1,1050,671.8346456692911) translate(26.02469135802469 71.11111111111111)"/><path d="M903.62 662.83h-46.08c-.94 0-1.68-.77-1.68-1.68v-61.3c0-.92.74-1.7 1.68-1.7h46.08c.94 0 1.68.78 1.68 1.7v61.3c0 .9-.74 1.68-1.68 1.68zm-44.35-3.42h42.62V601.6h-42.63z" stroke="#fff" stroke-opacity="0" fill="#d86613"/><path d="M871.6 616.88h-7.66c-.94 0-1.7-.77-1.7-1.7v-7.66c0-.94.76-1.7 1.7-1.7h7.67c.95 0 1.7.76 1.7 1.7v7.65c0 .94-.75 1.7-1.7 1.7zm-5.95-3.4h4.25v-4.26h-4.25zM871.6 634.75h-7.66c-.94 0-1.7-.76-1.7-1.7v-7.66c0-.95.76-1.7 1.7-1.7h7.67c.95 0 1.7.75 1.7 1.7v7.65c0 .94-.75 1.7-1.7 1.7zm-5.95-3.4h4.25v-4.26h-4.25zM871.6 652.64h-7.66c-.94 0-1.7-.77-1.7-1.7v-7.68c0-.94.76-1.7 1.7-1.7h7.67c.95 0 1.7.76 1.7 1.7v7.67c0 .94-.75 1.7-1.7 1.7zm-5.95-3.4h4.25v-4.28h-4.25zM875.46 609.64h23.04v3.4h-23.04v-3.4zM875.46 627.5h23.04v3.4h-23.04v-3.4zM875.46 645.4h23.04v3.4h-23.04v-3.4z" stroke="#fff" stroke-opacity="0" fill="#d86613"/><path d="M857.58 655.18h-7.72c-.93 0-1.68-.78-1.68-1.7v-61.3c0-.9.75-1.7 1.68-1.7h46.1c.93 0 1.67.8 1.67 1.7v7.7h-3.4v-5.96H851.6v57.83h5.98z" stroke="#fff" stroke-opacity="0" fill="#d86613"/><path d="M849.4 647.53h-7.72c-.94 0-1.68-.77-1.68-1.68v-61.33c0-.9.74-1.7 1.68-1.7h46.08c.94 0 1.68.8 1.68 1.7v7.7h-3.4v-5.96H843.4v57.84h6z" stroke="#fff" stroke-opacity="0" fill="#d86613"/><path d="M857.58 655.18h-7.72c-.93 0-1.68-.78-1.68-1.7v-61.3c0-.9.75-1.7 1.68-1.7h46.1c.93 0 1.67.8 1.67 1.7v63z" stroke="#fff" stroke-opacity="0" fill="#fff" fill-opacity="0"/><path d="M849.4 647.53h-7.72c-.94 0-1.68-.77-1.68-1.68v-61.33c0-.9.74-1.7 1.68-1.7h46.08c.94 0 1.68.8 1.68 1.7v63z" stroke="#fff" stroke-opacity="0" fill="#fff" fill-opacity="0"/><use xlink:href="#d" transform="matrix(1,0,0,1,810,671.8346456692911) translate(22.876543209876544 17.77777777777778)"/><use xlink:href="#e" transform="matrix(1,0,0,1,810,671.8346456692911) translate(-1.7530864197530889 44.44444444444444)"/><use xlink:href="#c" transform="matrix(1,0,0,1,810,671.8346456692911) translate(26.02469135802469 71.11111111111111)"/><path d="M1143.62 421.42h-46.08c-.94 0-1.68-.78-1.68-1.68v-61.32c0-.9.74-1.68 1.68-1.68h46.08c.94 0 1.68.77 1.68 1.68v61.32c0 .9-.74 1.68-1.68 1.68zm-44.35-3.43h42.62v-57.84h-42.63z" stroke="#fff" stroke-opacity="0" fill="#d86613"/><path d="M1111.6 375.46h-7.66c-.94 0-1.7-.76-1.7-1.7v-7.66c0-.94.76-1.7 1.7-1.7h7.67c.95 0 1.7.76 1.7 1.7v7.66c0 .94-.75 1.7-1.7 1.7zm-5.95-3.4h4.25v-4.26h-4.25zM1111.6 393.33h-7.66c-.94 0-1.7-.76-1.7-1.7v-7.66c0-.94.76-1.7 1.7-1.7h7.67c.95 0 1.7.76 1.7 1.7v7.66c0 .94-.75 1.7-1.7 1.7zm-5.95-3.4h4.25v-4.25h-4.25zM1111.6 411.22h-7.66c-.94 0-1.7-.76-1.7-1.7v-7.67c0-.94.76-1.7 1.7-1.7h7.67c.95 0 1.7.76 1.7 1.7v7.67c0 .94-.75 1.7-1.7 1.7zm-5.95-3.4h4.25v-4.28h-4.25zM1115.46 368.23h23.04v3.4h-23.04v-3.4zM1115.46 386.08h23.04v3.4h-23.04v-3.4zM1115.46 403.97h23.04v3.4h-23.04v-3.4z" stroke="#fff" stroke-opacity="0" fill="#d86613"/><path d="M1097.58 413.76h-7.72c-.93 0-1.68-.78-1.68-1.68v-61.32c0-.9.75-1.68 1.68-1.68h46.1c.93 0 1.67.77 1.67 1.68v7.7h-3.4v-5.96h-42.63v57.83h5.98z" stroke="#fff" stroke-opacity="0" fill="#d86613"/><path d="M1089.4 406.12h-7.72c-.94 0-1.68-.78-1.68-1.7V343.1c0-.9.74-1.68 1.68-1.68h46.08c.94 0 1.68.77 1.68 1.68v7.7h-3.4v-5.95h-42.63v57.84h6z" stroke="#fff" stroke-opacity="0" fill="#d86613"/><path d="M1097.58 413.76h-7.72c-.93 0-1.68-.78-1.68-1.68v-61.32c0-.9.75-1.68 1.68-1.68h46.1c.93 0 1.67.77 1.67 1.68v63z" stroke="#fff" stroke-opacity="0" fill="#fff" fill-opacity="0"/><path d="M1089.4 406.12h-7.72c-.94 0-1.68-.78-1.68-1.7V343.1c0-.9.74-1.68 1.68-1.68h46.08c.94 0 1.68.77 1.68 1.68v63.02z" stroke="#fff" stroke-opacity="0" fill="#fff" fill-opacity="0"/><use xlink:href="#f" transform="matrix(1,0,0,1,1050,430.4173228346456) translate(13.709876543209873 17.77777777777778)"/><use xlink:href="#g" transform="matrix(1,0,0,1,1050,430.4173228346456) translate(26.02469135802469 44.44444444444444)"/><path d="M1363.62 421.42h-46.08c-.94 0-1.68-.78-1.68-1.68v-61.32c0-.9.74-1.68 1.68-1.68h46.08c.94 0 1.68.77 1.68 1.68v61.32c0 .9-.74 1.68-1.68 1.68zm-44.35-3.43h42.62v-57.84h-42.63z" stroke="#fff" stroke-opacity="0" fill="#d86613"/><path d="M1331.6 375.46h-7.66c-.94 0-1.7-.76-1.7-1.7v-7.66c0-.94.76-1.7 1.7-1.7h7.67c.95 0 1.7.76 1.7 1.7v7.66c0 .94-.75 1.7-1.7 1.7zm-5.95-3.4h4.25v-4.26h-4.25zM1331.6 393.33h-7.66c-.94 0-1.7-.76-1.7-1.7v-7.66c0-.94.76-1.7 1.7-1.7h7.67c.95 0 1.7.76 1.7 1.7v7.66c0 .94-.75 1.7-1.7 1.7zm-5.95-3.4h4.25v-4.25h-4.25zM1331.6 411.22h-7.66c-.94 0-1.7-.76-1.7-1.7v-7.67c0-.94.76-1.7 1.7-1.7h7.67c.95 0 1.7.76 1.7 1.7v7.67c0 .94-.75 1.7-1.7 1.7zm-5.95-3.4h4.25v-4.28h-4.25zM1335.46 368.23h23.04v3.4h-23.04v-3.4zM1335.46 386.08h23.04v3.4h-23.04v-3.4zM1335.46 403.97h23.04v3.4h-23.04v-3.4z" stroke="#fff" stroke-opacity="0" fill="#d86613"/><path d="M1317.58 413.76h-7.72c-.93 0-1.68-.78-1.68-1.68v-61.32c0-.9.75-1.68 1.68-1.68h46.1c.93 0 1.67.77 1.67 1.68v7.7h-3.4v-5.96h-42.63v57.83h5.98z" stroke="#fff" stroke-opacity="0" fill="#d86613"/><path d="M1309.4 406.12h-7.72c-.94 0-1.68-.78-1.68-1.7V343.1c0-.9.74-1.68 1.68-1.68h46.08c.94 0 1.68.77 1.68 1.68v7.7h-3.4v-5.95h-42.63v57.84h6z" stroke="#fff" stroke-opacity="0" fill="#d86613"/><path d="M1317.58 413.76h-7.72c-.93 0-1.68-.78-1.68-1.68v-61.32c0-.9.75-1.68 1.68-1.68h46.1c.93 0 1.67.77 1.67 1.68v63z" stroke="#fff" stroke-opacity="0" fill="#fff" fill-opacity="0"/><path d="M1309.4 406.12h-7.72c-.94 0-1.68-.78-1.68-1.7V343.1c0-.9.74-1.68 1.68-1.68h46.08c.94 0 1.68.77 1.68 1.68v63.02z" stroke="#fff" stroke-opacity="0" fill="#fff" fill-opacity="0"/><use xlink:href="#h" transform="matrix(1,0,0,1,1270,430.4173228346456) translate(17.47530864197531 17.77777777777778)"/><use xlink:href="#i" transform="matrix(1,0,0,1,1270,430.4173228346456) translate(8.154320987654316 44.44444444444444)"/><use xlink:href="#e" transform="matrix(1,0,0,1,1270,430.4173228346456) translate(-1.7530864197530889 71.11111111111111)"/><use xlink:href="#c" transform="matrix(1,0,0,1,1270,430.4173228346456) translate(26.02469135802469 97.77777777777777)"/><path d="M1443.62 1005.75h-46.08c-.94 0-1.68-.78-1.68-1.68v-61.32c0-.9.74-1.68 1.68-1.68h46.08c.94 0 1.68.77 1.68 1.68v61.32c0 .9-.74 1.68-1.68 1.68zm-44.35-3.43h42.62V944.5h-42.63z" stroke="#fff" stroke-opacity="0" fill="#d86613"/><path d="M1411.6 959.8h-7.66c-.94 0-1.7-.77-1.7-1.7v-7.67c0-.94.76-1.7 1.7-1.7h7.67c.95 0 1.7.76 1.7 1.7v7.66c0 .93-.75 1.7-1.7 1.7zm-5.95-3.42h4.25v-4.25h-4.25zM1411.6 977.66h-7.66c-.94 0-1.7-.76-1.7-1.7v-7.66c0-.94.76-1.7 1.7-1.7h7.67c.95 0 1.7.76 1.7 1.7v7.66c0 .94-.75 1.7-1.7 1.7zm-5.95-3.4h4.25V970h-4.25zM1411.6 995.55h-7.66c-.94 0-1.7-.76-1.7-1.7v-7.67c0-.94.76-1.7 1.7-1.7h7.67c.95 0 1.7.76 1.7 1.7v7.66c0 .95-.75 1.7-1.7 1.7zm-5.95-3.4h4.25v-4.28h-4.25zM1415.46 952.56h23.04v3.4h-23.04v-3.4zM1415.46 970.4h23.04v3.42h-23.04v-3.4zM1415.46 988.3h23.04v3.4h-23.04v-3.4z" stroke="#fff" stroke-opacity="0" fill="#d86613"/><path d="M1397.58 998.1h-7.72c-.93 0-1.68-.8-1.68-1.7v-61.3c0-.92.75-1.7 1.68-1.7h46.1c.93 0 1.67.78 1.67 1.7v7.7h-3.4v-5.97h-42.63v57.83h5.98z" stroke="#fff" stroke-opacity="0" fill="#d86613"/><path d="M1389.4 990.44h-7.72c-.94 0-1.68-.77-1.68-1.68v-61.33c0-.9.74-1.68 1.68-1.68h46.08c.94 0 1.68.77 1.68 1.68v7.7h-3.4v-5.95h-42.63v57.84h6z" stroke="#fff" stroke-opacity="0" fill="#d86613"/><path d="M1397.58 998.1h-7.72c-.93 0-1.68-.8-1.68-1.7v-61.3c0-.92.75-1.7 1.68-1.7h46.1c.93 0 1.67.78 1.67 1.7v63z" stroke="#fff" stroke-opacity="0" fill="#fff" fill-opacity="0"/><path d="M1389.4 990.44h-7.72c-.94 0-1.68-.77-1.68-1.68v-61.33c0-.9.74-1.68 1.68-1.68h46.08c.94 0 1.68.77 1.68 1.68v63z" stroke="#fff" stroke-opacity="0" fill="#fff" fill-opacity="0"/><use xlink:href="#j" transform="matrix(1,0,0,1,1350,1014.7471014715942) translate(51.91975308641975 17.77777777777778)"/><use xlink:href="#k" transform="matrix(1,0,0,1,1350,1014.7471014715942) translate(11.858024691358011 44.44444444444444)"/><path d="M1079 622.83H923.8" stroke="#5e5e5e" stroke-width="2" fill="none"/><path d="M1080 623.83h-1.03v-2h1.03" fill="#5e5e5e"/><path d="M908.54 622.83l14.26-4.63v9.27z" stroke="#5e5e5e" stroke-width="2" fill="#5e5e5e"/><path d="M839 622.83H618.5" stroke="#5e5e5e" stroke-width="2" fill="none"/><path d="M840 623.83h-1.03v-2H840" fill="#5e5e5e"/><path d="M603.24 622.83l14.26-4.63v9.27z" stroke="#5e5e5e" stroke-width="2" fill="#5e5e5e"/><path d="M1146.3 622.83h180.35c3.3 0 6-2.68 6-6v-176.9" stroke="#5e5e5e" stroke-width="2" fill="none"/><path d="M1146.33 623.83h-1.03v-2h1.03" fill="#5e5e5e"/><path d="M1332.65 424.65l4.64 14.27h-9.3z" stroke="#5e5e5e" stroke-width="2" fill="#5e5e5e"/><path d="M1112.65 581.83v-141.9" stroke="#5e5e5e" stroke-width="2" fill="none"/><path d="M1113.65 582.83h-2v-1.02h2" fill="#5e5e5e"/><path d="M1112.65 424.65l4.64 14.27h-9.3z" stroke="#5e5e5e" stroke-width="2" fill="#5e5e5e"/><path d="M1079 381.42H884.58c-3.3 0-6 2.68-6 6v176.9" stroke="#5e5e5e" stroke-width="2" fill="none"/><path d="M1080 382.42h-1.03v-2h1.03" fill="#5e5e5e"/><path d="M878.58 579.6l-4.63-14.27h9.27z" stroke="#5e5e5e" stroke-width="2" fill="#5e5e5e"/><path d="M483.62 961.42h-46.08c-.94 0-1.68-.78-1.68-1.68v-61.32c0-.9.74-1.68 1.68-1.68h46.08c.94 0 1.68.77 1.68 1.68v61.32c0 .9-.74 1.68-1.68 1.68zM439.27 958h42.62v-57.84h-42.63z" stroke="#fff" stroke-opacity="0" fill="#d86613"/><path d="M451.6 915.46h-7.66c-.94 0-1.7-.76-1.7-1.7v-7.66c0-.94.76-1.7 1.7-1.7h7.67c.95 0 1.7.76 1.7 1.7v7.66c0 .94-.75 1.7-1.7 1.7zm-5.95-3.4h4.25v-4.26h-4.25zM451.6 933.33h-7.66c-.94 0-1.7-.76-1.7-1.7v-7.66c0-.94.76-1.7 1.7-1.7h7.67c.95 0 1.7.76 1.7 1.7v7.66c0 .94-.75 1.7-1.7 1.7zm-5.95-3.4h4.25v-4.25h-4.25zM451.6 951.22h-7.66c-.94 0-1.7-.76-1.7-1.7v-7.67c0-.94.76-1.7 1.7-1.7h7.67c.95 0 1.7.76 1.7 1.7v7.67c0 .94-.75 1.7-1.7 1.7zm-5.95-3.4h4.25v-4.28h-4.25zM455.46 908.23h23.04v3.4h-23.04v-3.4zM455.46 926.08h23.04v3.4h-23.04v-3.4zM455.46 943.97h23.04v3.4h-23.04v-3.4z" stroke="#fff" stroke-opacity="0" fill="#d86613"/><path d="M437.58 953.76h-7.72c-.93 0-1.68-.78-1.68-1.68v-61.32c0-.9.75-1.68 1.68-1.68h46.1c.93 0 1.67.77 1.67 1.68v7.7h-3.4v-5.96H431.6v57.83h5.98z" stroke="#fff" stroke-opacity="0" fill="#d86613"/><path d="M429.4 946.12h-7.72c-.94 0-1.68-.78-1.68-1.7V883.1c0-.9.74-1.68 1.68-1.68h46.08c.94 0 1.68.77 1.68 1.68v7.7h-3.4v-5.95H423.4v57.84h6z" stroke="#fff" stroke-opacity="0" fill="#d86613"/><path d="M437.58 953.76h-7.72c-.93 0-1.68-.78-1.68-1.68v-61.32c0-.9.75-1.68 1.68-1.68h46.1c.93 0 1.67.77 1.67 1.68v63z" stroke="#fff" stroke-opacity="0" fill="#fff" fill-opacity="0"/><path d="M429.4 946.12h-7.72c-.94 0-1.68-.78-1.68-1.7V883.1c0-.9.74-1.68 1.68-1.68h46.08c.94 0 1.68.77 1.68 1.68v63.02z" stroke="#fff" stroke-opacity="0" fill="#fff" fill-opacity="0"/><use xlink:href="#l" transform="matrix(1,0,0,1,390,970.4173228346456) translate(30.407407407407405 17.77777777777778)"/><use xlink:href="#m" transform="matrix(1,0,0,1,390,970.4173228346456) translate(18 44.44444444444444)"/><path d="M663.62 961.42h-46.08c-.94 0-1.68-.78-1.68-1.68v-61.32c0-.9.74-1.68 1.68-1.68h46.08c.94 0 1.68.77 1.68 1.68v61.32c0 .9-.74 1.68-1.68 1.68zM619.27 958h42.62v-57.84h-42.63z" stroke="#fff" stroke-opacity="0" fill="#d86613"/><path d="M631.6 915.46h-7.66c-.94 0-1.7-.76-1.7-1.7v-7.66c0-.94.76-1.7 1.7-1.7h7.67c.95 0 1.7.76 1.7 1.7v7.66c0 .94-.75 1.7-1.7 1.7zm-5.95-3.4h4.25v-4.26h-4.25zM631.6 933.33h-7.66c-.94 0-1.7-.76-1.7-1.7v-7.66c0-.94.76-1.7 1.7-1.7h7.67c.95 0 1.7.76 1.7 1.7v7.66c0 .94-.75 1.7-1.7 1.7zm-5.95-3.4h4.25v-4.25h-4.25zM631.6 951.22h-7.66c-.94 0-1.7-.76-1.7-1.7v-7.67c0-.94.76-1.7 1.7-1.7h7.67c.95 0 1.7.76 1.7 1.7v7.67c0 .94-.75 1.7-1.7 1.7zm-5.95-3.4h4.25v-4.28h-4.25zM635.46 908.23h23.04v3.4h-23.04v-3.4zM635.46 926.08h23.04v3.4h-23.04v-3.4zM635.46 943.97h23.04v3.4h-23.04v-3.4z" stroke="#fff" stroke-opacity="0" fill="#d86613"/><path d="M617.58 953.76h-7.72c-.93 0-1.68-.78-1.68-1.68v-61.32c0-.9.75-1.68 1.68-1.68h46.1c.93 0 1.67.77 1.67 1.68v7.7h-3.4v-5.96H611.6v57.83h5.98z" stroke="#fff" stroke-opacity="0" fill="#d86613"/><path d="M609.4 946.12h-7.72c-.94 0-1.68-.78-1.68-1.7V883.1c0-.9.74-1.68 1.68-1.68h46.08c.94 0 1.68.77 1.68 1.68v7.7h-3.4v-5.95H603.4v57.84h6z" stroke="#fff" stroke-opacity="0" fill="#d86613"/><path d="M617.58 953.76h-7.72c-.93 0-1.68-.78-1.68-1.68v-61.32c0-.9.75-1.68 1.68-1.68h46.1c.93 0 1.67.77 1.67 1.68v63z" stroke="#fff" stroke-opacity="0" fill="#fff" fill-opacity="0"/><path d="M609.4 946.12h-7.72c-.94 0-1.68-.78-1.68-1.7V883.1c0-.9.74-1.68 1.68-1.68h46.08c.94 0 1.68.77 1.68 1.68v63.02z" stroke="#fff" stroke-opacity="0" fill="#fff" fill-opacity="0"/><use xlink:href="#n" transform="matrix(1,0,0,1,570,970.4173228346456) translate(23.401234567901234 17.77777777777778)"/><use xlink:href="#o" transform="matrix(1,0,0,1,570,970.4173228346456) translate(4.41975308641976 44.44444444444444)"/><use xlink:href="#p" transform="matrix(1,0,0,1,570,970.4173228346456) translate(57.44444444444445 44.44444444444444)"/><use xlink:href="#c" transform="matrix(1,0,0,1,570,970.4173228346456) translate(26.02469135802469 71.11111111111111)"/><path d="M452.65 880.42v-84.76c0-3.3 2.7-6 6-6h92.68c3.32 0 6-2.7 6-6V716.4" stroke="#5e5e5e" stroke-width="2" fill="none"/><path d="M453.65 881.42h-2v-1.03h2" fill="#5e5e5e"/><path d="M557.33 701.14l4.64 14.27h-9.27z" stroke="#5e5e5e" stroke-width="2" fill="#5e5e5e"/><path d="M460 1081.42h120v120H460v-120z" stroke="#fff" stroke-opacity="0" stroke-width="2" fill="#3b48cc"/><path d="M524.1 1163.42H522c-.87 0-1.58-.7-1.58-1.6v-35.6c0-.9.7-1.6 1.58-1.6h18.9c.5 0 .9.2 1.2.54l4.8 5.78-2.25 2.06-4.45-5.2h-16.66v32.55h.56z" stroke="#fff" stroke-opacity="0" stroke-width="2" fill="#fff"/><path d="M553.3 1169.2h-25.85c-.87 0-1.6-.7-1.6-1.58V1132c0-.9.73-1.6 1.6-1.6h19.95c.43 0 .78.16 1.1.47l5.9 5.98c.3.3.45.66.45 1.1v29.7c-.03.86-.7 1.52-1.54 1.56zm-24.3-2.98h22.77v-27.66l-5-5h-17.78z" stroke="#fff" stroke-opacity="0" stroke-width="2" fill="#fff"/><path d="M553.3 1141.07h-7.5c-.87 0-1.6-.73-1.6-1.6v-7.52h3.08v5.96h5.97zM539 1160.86h-1c-.82.02-1.52-.3-2.05-.93-.66-.97-.87-2.04-.66-3.2-.1-2.85-1.7-3.3-1.7-3.3-.82-.32-1.24-1.25-.93-2.07.17-.45.48-.77.93-.94.14 0 1.6-.6 1.6-3.4 0-1.68.78-3.55 2.66-3.62h1.05v3.1h-.5c-.02.17-.02.34 0 .5.1 1.88-.4 3.5-1.6 4.94 1.2 1.45 1.7 3.05 1.6 4.92.02.1.02.2 0 .28-.02.24-.02.45 0 .7h.7zM543.3 1160.85v-3.06h.6c.02-.2.02-.34 0-.53-.1-1.86.42-3.5 1.6-4.92-1.18-1.44-1.7-3.07-1.6-4.92v-.28c.03-.25.03-.44 0-.68h-.68v-3.08h1c.82-.03 1.52.3 2.05.9.66 1 .87 2.06.66 3.22 0 2.7 1.6 3.2 1.6 3.3.7.2 1.14.86 1.1 1.6 0 .7-.45 1.28-1.13 1.45-.13 0-1.6.6-1.6 3.4 0 1.7-.8 3.57-2.66 3.62zM511.57 1124.94c-12.8 0-26.42-3.95-26.42-11.2 0-7.26 13.58-11.2 26.42-11.2 12.84 0 26.4 3.94 26.4 11.2 0 7.25-13.62 11.2-26.4 11.2zm0-19.4c-13.74 0-23.35 4.3-23.35 8.17s9.6 8.15 23.35 8.15c13.73 0 23.35-4.28 23.35-8.14 0-3.86-9.62-8.16-23.35-8.16z" stroke="#fff" stroke-opacity="0" stroke-width="2" fill="#fff"/><path d="M534.9 1113.7h3.07v9.7h-3.07v-9.7zM511.57 1180.36c-12.8 0-26.42-3.93-26.42-11.2v-55.45h3.07v55.4c0 3.86 9.6 8.2 23.35 8.2 13.73 0 23.35-4.34 23.35-8.2h3.06c0 7.33-13.63 11.26-26.4 11.26z" stroke="#fff" stroke-opacity="0" stroke-width="2" fill="#fff"/><path d="M511.6 1144.3c-15 0-26.34-4.8-26.34-11.2h3.1c0 3.87 9.6 8.18 23.25 8.18 2.46 0 4.5-.12 6.93-.4l.33 3.05c-2.55.28-4.7.4-7.25.38zM511.63 1163.36c-15.05 0-26.37-4.8-26.37-11.2h3.1c0 3.85 9.6 8.15 23.27 8.15 2.42.02 4.46-.1 6.88-.37l.35 3.1c-2.52.25-4.7.34-7.22.33z" stroke="#fff" stroke-opacity="0" stroke-width="2" fill="#fff"/><use xlink:href="#q" transform="matrix(1,0,0,1,430,1210.4173228346456) translate(23.888888888888886 17.77777777777778)"/><use xlink:href="#r" transform="matrix(1,0,0,1,430,1210.4173228346456) translate(109.25925925925925 17.77777777777778)"/><path d="M452.65 962.42v53c0 3.3 2.7 6 6 6H514c3.3 0 6 2.68 6 6v35.5" stroke="#5e5e5e" stroke-width="2" fill="none"/><path d="M453.65 962.44h-2v-1.02h2" fill="#5e5e5e"/><path d="M520 1078.18l-4.64-14.26h9.28z" stroke="#5e5e5e" stroke-width="2" fill="#5e5e5e"/><path d="M632.65 962.42v53c0 3.3-2.7 6-6 6H526c-3.3 0-6 2.68-6 6v35.5" stroke="#5e5e5e" stroke-width="2" fill="none"/><path d="M633.65 962.44h-2v-1.02h2" fill="#5e5e5e"/><path d="M520 1078.18l-4.64-14.26h9.28z" stroke="#5e5e5e" stroke-width="2" fill="#5e5e5e"/><path d="M565.35 645.46l-19.6-11.3V611.5l19.6-11.3 19.6 11.3v22.63zm-16-13.4l16 9.24 16-9.23V613.6l-16-9.23-16 9.23z" stroke="#fff" stroke-opacity="0" fill="#5a6c86"/><path d="M565.35 662.83l-34.65-20v-40l34.65-20 34.65 20v40zm-31.05-22.08l31.05 17.92 31.05-17.92V604.9L565.35 587l-31.05 17.9z" stroke="#fff" stroke-opacity="0" fill="#5a6c86"/><path d="M564.44 621.27l32.84-18.95 1.8 3.14-32.84 18.95-1.8-3.13z" stroke="#fff" stroke-opacity="0" stroke-width=".87" fill="#5a6c86"/><path d="M531.68 605.32l1.8-3.14 33 18.97-1.82 3.14-32.98-18.98z" stroke="#fff" stroke-opacity="0" stroke-width=".5" fill="#5a6c86"/><path d="M563.54 622.83h3.62v37.93h-3.62v-37.93z" stroke="#fff" stroke-opacity="0" fill="#5a6c86"/><use xlink:href="#s" transform="matrix(1,0,0,1,500.69999999999993,671.8346456692911) translate(11.419753086419753 17.77777777777778)"/><use xlink:href="#t" transform="matrix(1,0,0,1,500.69999999999993,671.8346456692911) translate(82.77777777777777 17.77777777777778)"/><path d="M1170.15 963.78c0 31.8-25.76 57.63-57.5 57.63s-57.5-25.8-57.5-57.62c0-31.82 25.76-57.63 57.5-57.63s57.5 25.8 57.5 57.63z" fill="#9d5025"/><path d="M1170.15 959.05c0 31.8-25.76 57.63-57.5 57.63s-57.5-25.82-57.5-57.63c0-31.8 25.76-57.63 57.5-57.63s57.5 25.82 57.5 57.63z" fill="#f58536"/><path d="M1129.42 912.5v20.92h-33.56V912.5h33.56zM1155.37 973.06v17.04h-17v-17.04h17zM1133.88 973.06v17.04h-17v-17.04h17zM1107.7 973.06v17.04h-17v-17.04h17zM1086.2 973.06v17.04h-17v-17.04h17z" fill="#fff"/><path d="M1076.17 958.3h3.06v16.73h-3.06V958.3z" fill="#fff"/><path d="M1076.17 958.3h24.57v3.07h-24.57v-3.06z" fill="#fff"/><path d="M1097.68 958.3h3.06v16.73h-3.06V958.3zM1123.85 958.3h3.06v16.73h-3.05V958.3z" fill="#fff"/><path d="M1123.85 958.3h24.57v3.07h-24.57v-3.06z" fill="#fff"/><path d="M1145.36 958.3h3.06v16.73h-3.06V958.3zM1086.95 946.37h3.06v13.46h-3.05v-13.46zM1111.1 930.34h3.07v16.28h-3.06v-16.28z" fill="#fff"/><path d="M1086.95 945.1h50.77v3.05h-50.77v-3.06z" fill="#fff"/><path d="M1134.66 946.37h3.06v13.46h-3.06v-13.46z" fill="#fff"/><use xlink:href="#a" transform="matrix(1,0,0,1,1055.15,1021.4173228346458) translate(3.271604938271601 17.77777777777778)"/><use xlink:href="#u" transform="matrix(1,0,0,1,1055.15,1021.4173228346458) translate(32.808641975308646 44.44444444444444)"/><use xlink:href="#v" transform="matrix(1,0,0,1,1055.15,1021.4173228346458) translate(13.734567901234563 71.11111111111111)"/><path d="M1112.65 900.42V681.34" stroke="#5e5e5e" stroke-width="2" fill="none"/><path d="M1113.65 901.46l-1-.04h-.53l-.47.02v-1.05h2" fill="#5e5e5e"/><path d="M1112.65 666.07l4.64 14.27h-9.3z" stroke="#5e5e5e" stroke-width="2" fill="#5e5e5e"/><path d="M1171.06 965.75h190.44" stroke="#5e5e5e" stroke-width="2" fill="none"/><path d="M1171.1 966.75H1170l.1-2h.97" fill="#5e5e5e"/><path d="M1376.76 965.75l-14.26 4.63v-9.27z" stroke="#5e5e5e" stroke-width="2" fill="#5e5e5e"/><path d="M787 427.9l-13.4-14.63-18.84 48.12 18.85 48.1 13.4-14.63V427.9z" fill="#2e73b8"/><path d="M750.22 521.42l23.4-11.88V413.3l-23.4-11.88-27.8 60 27.8 60z" fill="#5294cf"/><path d="M716.78 521.42h33.43v-120H716.8l-20.07 60 20.08 60z" fill="#2e73b8"/><path d="M693.38 509.54l23.4 11.88v-120l-23.4 11.88-10.36 48.12 10.36 48.12z" fill="#205b99"/><path d="M680 494.86l13.38 14.63v-96.23L680 427.9v66.96z" fill="#19486f"/><use xlink:href="#w" transform="matrix(1,0,0,1,680,521.4173228346456) translate(13.376543209876544 17.77777777777778)"/><use xlink:href="#r" transform="matrix(1,0,0,1,680,521.4173228346456) translate(30.074074074074076 44.44444444444444)"/><path d="M839 622.83h-19.5c-3.32 0-6-2.68-6-6v-139.4c0-3.33-2.7-6-6-6h-2" stroke="#5e5e5e" stroke-width="2" fill="none"/><path d="M840 623.83h-1.03v-2H840" fill="#5e5e5e"/><path d="M790.23 471.42l14.26-4.64v9.27z" stroke="#5e5e5e" stroke-width="2" fill="#5e5e5e"/><path d="M1112.14 126.84l58 8.62v5.08c0 7.55-26 13.65-58 13.65s-58-6.1-58-13.66v-5.52z" fill="#8c3123"/><path d="M1112.17 163.55c24.2 0 44.93-3.54 53.58-8.5l2.88-4.78 1.15-4.4v5.45l-19 81c0 5.07-17.3 9.1-38.6 9.1-21.33 0-38.6-4.03-38.6-9.1l-19.02-81v-5.35l4.37 9.27c8.76 4.87 29.27 8.3 53.24 8.3z" fill="#8c3123"/><path d="M1112.15 121.42c32 0 58 6.12 58 13.62 0 7.5-26 13.57-58 13.57s-58-6-58-13.56c0-7.56 26-13.62 58-13.62z" fill="#e05243"/><path d="M1112.14 158.03c29.85 0 54.4-5.22 57.63-12.07l-19.02 81c0 5.05-17.3 9.1-38.6 9.1-21.33 0-38.6-4.05-38.6-9.1l-19.03-81c3.23 6.85 27.78 12.07 57.62 12.07z" fill="#e05243"/><use xlink:href="#x" transform="matrix(1,0,0,1,1054.15,241.41732283464557) translate(27.814814814814817 17.77777777777778)"/><use xlink:href="#y" transform="matrix(1,0,0,1,1054.15,241.41732283464557) translate(19.141975308641975 44.44444444444444)"/><path d="M1112.15 242.4v80.52" stroke="#5e5e5e" stroke-width="2" fill="none"/><path d="M1112.17 241.4h.98v1.03h-2v-1.1" fill="#5e5e5e"/><path d="M1112.15 338.18l-4.64-14.26h9.3z" stroke="#5e5e5e" stroke-width="2" fill="#5e5e5e"/><path d="M1607 337.9l-13.4-14.63-18.84 48.12 18.85 48.1 13.4-14.63V337.9z" fill="#2e73b8"/><path d="M1570.22 431.42l23.4-11.88V323.3l-23.4-11.88-27.8 60 27.8 60z" fill="#5294cf"/><path d="M1536.78 431.42h33.43v-120h-33.42l-20.07 60 20.08 60z" fill="#2e73b8"/><path d="M1513.38 419.54l23.4 11.88v-120l-23.4 11.88-10.36 48.12 10.36 48.12z" fill="#205b99"/><path d="M1500 404.86l13.38 14.63v-96.23L1500 337.9v66.96z" fill="#19486f"/><g><use xlink:href="#z" transform="matrix(1,0,0,1,1500,431.4173228346456) translate(-1.345679012345684 17.77777777777778)"/><use xlink:href="#r" transform="matrix(1,0,0,1,1500,431.4173228346456) translate(30.074074074074076 44.44444444444444)"/></g><path d="M1366.3 381.42h115.2" stroke="#5e5e5e" stroke-width="2" fill="none"/><path d="M1366.33 382.42h-1.03v-2h1.03" fill="#5e5e5e"/><path d="M1496.76 381.42l-14.26 4.63v-9.27z" stroke="#5e5e5e" stroke-width="2" fill="#5e5e5e"/><path d="M343.95 945.45H331c-.65 0-1.26-.38-1.52-.98l-18.14-38.9h-7.32c-.9 0-1.7-.75-1.7-1.68v-11.23c0-.92.8-1.7 1.7-1.7h16.15c.7 0 1.26.4 1.52 1l18.1 38.88h4.15c.9 0 1.68.77 1.68 1.75v11.16c0 .93-.78 1.7-1.68 1.7zm-11.9-3.43h10.16v-7.73h-3.5c-.64 0-1.25-.4-1.5-1l-18.07-38.94h-13.38v7.8h6.67c.7 0 1.3.37 1.56.97z" stroke="#fff" stroke-opacity="0" fill="#d86613"/><path d="M308.8 945.45H295c-.9 0-1.68-.77-1.68-1.72 0-.27.05-.47.17-.7l14.45-30.27c.3-.6.87-.98 1.53-.98.67 0 1.24.34 1.54.95l6.9 14.3c.23.48.23.98 0 1.45l-7.55 16c-.3.6-.87.97-1.54.97zm-11.1-3.4h10.02l6.8-14.27-5.1-10.37z" stroke="#fff" stroke-opacity="0" fill="#d86613"/><path d="M320 961.42c-22.08 0-40-17.92-40-40s17.92-40 40-40 40 17.92 40 40-17.92 40-40 40zm0-76.56c-20.24 0-36.56 16.32-36.56 36.56 0 20.24 16.32 36.56 36.56 36.56 20.24 0 36.56-16.32 36.56-36.56 0-20.24-16.32-36.56-36.56-36.56z" stroke="#fff" stroke-opacity="0" fill="#d86613"/><g><use xlink:href="#A" transform="matrix(1,0,0,1,250,970.4173228346456) translate(28.086419753086417 17.77777777777778)"/></g><path d="M361 921.42h40.5" stroke="#5e5e5e" stroke-width="2" fill="none"/><path d="M361.03 922.42h-1.1l.07-1-.04-1h1.07" fill="#5e5e5e"/><path d="M416.76 921.42l-14.26 4.63v-9.27z" stroke="#5e5e5e" stroke-width="2" fill="#5e5e5e"/><defs><path fill="#333" d="M205 0l-28-72H64L36 0H1l101-248h38L239 0h-34zm-38-99l-47-123c-12 45-31 82-46 123h93" id="B"/><path fill="#333" d="M115-194c55 1 70 41 70 98S169 2 115 4C84 4 66-9 55-30l1 105H24l-1-265h31l2 30c10-21 28-34 59-34zm-8 174c40 0 45-34 45-75s-6-73-45-74c-42 0-51 32-51 76 0 43 10 73 51 73" id="C"/><path fill="#333" d="M24 0v-261h32V0H24" id="D"/><path fill="#333" d="M24-231v-30h32v30H24zM24 0v-190h32V0H24" id="E"/><path fill="#333" d="M96-169c-40 0-48 33-48 73s9 75 48 75c24 0 41-14 43-38l32 2c-6 37-31 61-74 61-59 0-76-41-82-99-10-93 101-131 147-64 4 7 5 14 7 22l-32 3c-4-21-16-35-41-35" id="F"/><path fill="#333" d="M141-36C126-15 110 5 73 4 37 3 15-17 15-53c-1-64 63-63 125-63 3-35-9-54-41-54-24 1-41 7-42 31l-33-3c5-37 33-52 76-52 45 0 72 20 72 64v82c-1 20 7 32 28 27v20c-31 9-61-2-59-35zM48-53c0 20 12 33 32 33 41-3 63-29 60-74-43 2-92-5-92 41" id="G"/><path fill="#333" d="M59-47c-2 24 18 29 38 22v24C64 9 27 4 27-40v-127H5v-23h24l9-43h21v43h35v23H59v120" id="H"/><path fill="#333" d="M100-194c62-1 85 37 85 99 1 63-27 99-86 99S16-35 15-95c0-66 28-99 85-99zM99-20c44 1 53-31 53-75 0-43-8-75-51-75s-53 32-53 75 10 74 51 75" id="I"/><path fill="#333" d="M117-194c89-4 53 116 60 194h-32v-121c0-31-8-49-39-48C34-167 62-67 57 0H25l-1-190h30c1 10-1 24 2 32 11-22 29-35 61-36" id="J"/><g id="a"><use transform="matrix(0.06172839506172839,0,0,0.06172839506172839,0,0)" xlink:href="#B"/><use transform="matrix(0.06172839506172839,0,0,0.06172839506172839,14.814814814814813,0)" xlink:href="#C"/><use transform="matrix(0.06172839506172839,0,0,0.06172839506172839,27.160493827160494,0)" xlink:href="#C"/><use transform="matrix(0.06172839506172839,0,0,0.06172839506172839,39.50617283950617,0)" xlink:href="#D"/><use transform="matrix(0.06172839506172839,0,0,0.06172839506172839,44.382716049382715,0)" xlink:href="#E"/><use transform="matrix(0.06172839506172839,0,0,0.06172839506172839,49.25925925925926,0)" xlink:href="#F"/><use transform="matrix(0.06172839506172839,0,0,0.06172839506172839,60.37037037037037,0)" xlink:href="#G"/><use transform="matrix(0.06172839506172839,0,0,0.06172839506172839,72.71604938271605,0)" xlink:href="#H"/><use transform="matrix(0.06172839506172839,0,0,0.06172839506172839,78.88888888888889,0)" xlink:href="#E"/><use transform="matrix(0.06172839506172839,0,0,0.06172839506172839,83.76543209876543,0)" xlink:href="#I"/><use transform="matrix(0.06172839506172839,0,0,0.06172839506172839,96.11111111111111,0)" xlink:href="#J"/></g><path fill="#333" d="M140-251c81 0 123 46 123 126C263-46 219 4 140 4 59 4 17-45 17-125s42-126 123-126zm0 227c63 0 89-41 89-101s-29-99-89-99c-61 0-89 39-89 99S79-25 140-24" id="K"/><path fill="#333" d="M114-163C36-179 61-72 57 0H25l-1-190h30c1 12-1 29 2 39 6-27 23-49 58-41v29" id="L"/><path fill="#333" d="M106-169C34-169 62-67 57 0H25v-261h32l-1 103c12-21 28-36 61-36 89 0 53 116 60 194h-32v-121c2-32-8-49-39-48" id="M"/><path fill="#333" d="M100-194c63 0 86 42 84 106H49c0 40 14 67 53 68 26 1 43-12 49-29l28 8c-11 28-37 45-77 45C44 4 14-33 15-96c1-61 26-98 85-98zm52 81c6-60-76-77-97-28-3 7-6 17-6 28h103" id="N"/><path fill="#333" d="M135-143c-3-34-86-38-87 0 15 53 115 12 119 90S17 21 10-45l28-5c4 36 97 45 98 0-10-56-113-15-118-90-4-57 82-63 122-42 12 7 21 19 24 35" id="O"/><g id="b"><use transform="matrix(0.06172839506172839,0,0,0.06172839506172839,0,0)" xlink:href="#K"/><use transform="matrix(0.06172839506172839,0,0,0.06172839506172839,17.28395061728395,0)" xlink:href="#L"/><use transform="matrix(0.06172839506172839,0,0,0.06172839506172839,24.629629629629626,0)" xlink:href="#F"/><use transform="matrix(0.06172839506172839,0,0,0.06172839506172839,35.74074074074073,0)" xlink:href="#M"/><use transform="matrix(0.06172839506172839,0,0,0.06172839506172839,48.08641975308641,0)" xlink:href="#N"/><use transform="matrix(0.06172839506172839,0,0,0.06172839506172839,60.43209876543209,0)" xlink:href="#O"/><use transform="matrix(0.06172839506172839,0,0,0.06172839506172839,71.5432098765432,0)" xlink:href="#H"/><use transform="matrix(0.06172839506172839,0,0,0.06172839506172839,77.71604938271604,0)" xlink:href="#L"/><use transform="matrix(0.06172839506172839,0,0,0.06172839506172839,85.06172839506172,0)" xlink:href="#G"/><use transform="matrix(0.06172839506172839,0,0,0.06172839506172839,97.4074074074074,0)" xlink:href="#H"/><use transform="matrix(0.06172839506172839,0,0,0.06172839506172839,103.58024691358024,0)" xlink:href="#E"/><use transform="matrix(0.06172839506172839,0,0,0.06172839506172839,108.45679012345678,0)" xlink:href="#I"/><use transform="matrix(0.06172839506172839,0,0,0.06172839506172839,120.80246913580247,0)" xlink:href="#J"/></g><path fill="#333" d="M185-189c-5-48-123-54-124 2 14 75 158 14 163 119 3 78-121 87-175 55-17-10-28-26-33-46l33-7c5 56 141 63 141-1 0-78-155-14-162-118-5-82 145-84 179-34 5 7 8 16 11 25" id="P"/><path fill="#333" d="M108 0H70L1-190h34L89-25l56-165h34" id="Q"/><g id="c"><use transform="matrix(0.06172839506172839,0,0,0.06172839506172839,0,0)" xlink:href="#P"/><use transform="matrix(0.06172839506172839,0,0,0.06172839506172839,14.814814814814813,0)" xlink:href="#N"/><use transform="matrix(0.06172839506172839,0,0,0.06172839506172839,27.160493827160494,0)" xlink:href="#L"/><use transform="matrix(0.06172839506172839,0,0,0.06172839506172839,34.50617283950617,0)" xlink:href="#Q"/><use transform="matrix(0.06172839506172839,0,0,0.06172839506172839,45.61728395061728,0)" xlink:href="#E"/><use transform="matrix(0.06172839506172839,0,0,0.06172839506172839,50.49382716049382,0)" xlink:href="#F"/><use transform="matrix(0.06172839506172839,0,0,0.06172839506172839,61.60493827160494,0)" xlink:href="#N"/></g><path fill="#333" d="M84 4C-5 8 30-112 23-190h32v120c0 31 7 50 39 49 72-2 45-101 50-169h31l1 190h-30c-1-10 1-25-2-33-11 22-28 36-60 37" id="R"/><g id="d"><use transform="matrix(0.06172839506172839,0,0,0.06172839506172839,0,0)" xlink:href="#B"/><use transform="matrix(0.06172839506172839,0,0,0.06172839506172839,14.814814814814813,0)" xlink:href="#F"/><use transform="matrix(0.06172839506172839,0,0,0.06172839506172839,25.925925925925924,0)" xlink:href="#F"/><use transform="matrix(0.06172839506172839,0,0,0.06172839506172839,37.03703703703704,0)" xlink:href="#I"/><use transform="matrix(0.06172839506172839,0,0,0.06172839506172839,49.382716049382715,0)" xlink:href="#R"/><use transform="matrix(0.06172839506172839,0,0,0.06172839506172839,61.72839506172839,0)" xlink:href="#J"/><use transform="matrix(0.06172839506172839,0,0,0.06172839506172839,74.07407407407408,0)" xlink:href="#H"/></g><path fill="#333" d="M240 0l2-218c-23 76-54 145-80 218h-23L58-218 59 0H30v-248h44l77 211c21-75 51-140 76-211h43V0h-30" id="S"/><path fill="#333" d="M177-190C167-65 218 103 67 71c-23-6-38-20-44-43l32-5c15 47 100 32 89-28v-30C133-14 115 1 83 1 29 1 15-40 15-95c0-56 16-97 71-98 29-1 48 16 59 35 1-10 0-23 2-32h30zM94-22c36 0 50-32 50-73 0-42-14-75-50-75-39 0-46 34-46 75s6 73 46 73" id="T"/><path fill="#333" d="M210-169c-67 3-38 105-44 169h-31v-121c0-29-5-50-35-48C34-165 62-65 56 0H25l-1-190h30c1 10-1 24 2 32 10-44 99-50 107 0 11-21 27-35 58-36 85-2 47 119 55 194h-31v-121c0-29-5-49-35-48" id="U"/><g id="e"><use transform="matrix(0.06172839506172839,0,0,0.06172839506172839,0,0)" xlink:href="#S"/><use transform="matrix(0.06172839506172839,0,0,0.06172839506172839,18.456790123456788,0)" xlink:href="#G"/><use transform="matrix(0.06172839506172839,0,0,0.06172839506172839,30.80246913580247,0)" xlink:href="#J"/><use transform="matrix(0.06172839506172839,0,0,0.06172839506172839,43.148148148148145,0)" xlink:href="#G"/><use transform="matrix(0.06172839506172839,0,0,0.06172839506172839,55.49382716049382,0)" xlink:href="#T"/><use transform="matrix(0.06172839506172839,0,0,0.06172839506172839,67.8395061728395,0)" xlink:href="#N"/><use transform="matrix(0.06172839506172839,0,0,0.06172839506172839,80.18518518518519,0)" xlink:href="#U"/><use transform="matrix(0.06172839506172839,0,0,0.06172839506172839,98.64197530864197,0)" xlink:href="#N"/><use transform="matrix(0.06172839506172839,0,0,0.06172839506172839,110.98765432098766,0)" xlink:href="#J"/><use transform="matrix(0.06172839506172839,0,0,0.06172839506172839,123.33333333333334,0)" xlink:href="#H"/></g><path fill="#333" d="M30-248c87 1 191-15 191 75 0 78-77 80-158 76V0H30v-248zm33 125c57 0 124 11 124-50 0-59-68-47-124-48v98" id="V"/><path fill="#333" d="M85-194c31 0 48 13 60 33l-1-100h32l1 261h-30c-2-10 0-23-3-31C134-8 116 4 85 4 32 4 16-35 15-94c0-66 23-100 70-100zm9 24c-40 0-46 34-46 75 0 40 6 74 45 74 42 0 51-32 51-76 0-42-9-74-50-73" id="W"/><g id="f"><use transform="matrix(0.06172839506172839,0,0,0.06172839506172839,0,0)" xlink:href="#V"/><use transform="matrix(0.06172839506172839,0,0,0.06172839506172839,14.814814814814813,0)" xlink:href="#L"/><use transform="matrix(0.06172839506172839,0,0,0.06172839506172839,22.160493827160494,0)" xlink:href="#N"/><use transform="matrix(0.06172839506172839,0,0,0.06172839506172839,34.50617283950617,0)" xlink:href="#W"/><use transform="matrix(0.06172839506172839,0,0,0.06172839506172839,46.85185185185185,0)" xlink:href="#E"/><use transform="matrix(0.06172839506172839,0,0,0.06172839506172839,51.72839506172839,0)" xlink:href="#F"/><use transform="matrix(0.06172839506172839,0,0,0.06172839506172839,62.839506172839506,0)" xlink:href="#H"/><use transform="matrix(0.06172839506172839,0,0,0.06172839506172839,69.01234567901234,0)" xlink:href="#E"/><use transform="matrix(0.06172839506172839,0,0,0.06172839506172839,73.88888888888889,0)" xlink:href="#I"/><use transform="matrix(0.06172839506172839,0,0,0.06172839506172839,86.23456790123457,0)" xlink:href="#J"/></g><g id="g"><use transform="matrix(0.06172839506172839,0,0,0.06172839506172839,0,0)" xlink:href="#P"/><use transform="matrix(0.06172839506172839,0,0,0.06172839506172839,14.814814814814813,0)" xlink:href="#N"/><use transform="matrix(0.06172839506172839,0,0,0.06172839506172839,27.160493827160494,0)" xlink:href="#L"/><use transform="matrix(0.06172839506172839,0,0,0.06172839506172839,34.50617283950617,0)" xlink:href="#Q"/><use transform="matrix(0.06172839506172839,0,0,0.06172839506172839,45.61728395061728,0)" xlink:href="#E"/><use transform="matrix(0.06172839506172839,0,0,0.06172839506172839,50.49382716049382,0)" xlink:href="#F"/><use transform="matrix(0.06172839506172839,0,0,0.06172839506172839,61.60493827160494,0)" xlink:href="#N"/></g><path fill="#333" d="M197 0v-115H63V0H30v-248h33v105h134v-105h34V0h-34" id="X"/><g id="h"><use transform="matrix(0.06172839506172839,0,0,0.06172839506172839,0,0)" xlink:href="#X"/><use transform="matrix(0.06172839506172839,0,0,0.06172839506172839,15.987654320987653,0)" xlink:href="#E"/><use transform="matrix(0.06172839506172839,0,0,0.06172839506172839,20.864197530864196,0)" xlink:href="#O"/><use transform="matrix(0.06172839506172839,0,0,0.06172839506172839,31.975308641975307,0)" xlink:href="#H"/><use transform="matrix(0.06172839506172839,0,0,0.06172839506172839,38.148148148148145,0)" xlink:href="#I"/><use transform="matrix(0.06172839506172839,0,0,0.06172839506172839,50.49382716049382,0)" xlink:href="#L"/><use transform="matrix(0.06172839506172839,0,0,0.06172839506172839,57.8395061728395,0)" xlink:href="#E"/><use transform="matrix(0.06172839506172839,0,0,0.06172839506172839,62.716049382716044,0)" xlink:href="#F"/><use transform="matrix(0.06172839506172839,0,0,0.06172839506172839,73.82716049382715,0)" xlink:href="#G"/><use transform="matrix(0.06172839506172839,0,0,0.06172839506172839,86.17283950617283,0)" xlink:href="#D"/></g><g id="i"><use transform="matrix(0.06172839506172839,0,0,0.06172839506172839,0,0)" xlink:href="#V"/><use transform="matrix(0.06172839506172839,0,0,0.06172839506172839,14.814814814814813,0)" xlink:href="#L"/><use transform="matrix(0.06172839506172839,0,0,0.06172839506172839,22.160493827160494,0)" xlink:href="#N"/><use transform="matrix(0.06172839506172839,0,0,0.06172839506172839,34.50617283950617,0)" xlink:href="#W"/><use transform="matrix(0.06172839506172839,0,0,0.06172839506172839,46.85185185185185,0)" xlink:href="#E"/><use transform="matrix(0.06172839506172839,0,0,0.06172839506172839,51.72839506172839,0)" xlink:href="#F"/><use transform="matrix(0.06172839506172839,0,0,0.06172839506172839,62.839506172839506,0)" xlink:href="#H"/><use transform="matrix(0.06172839506172839,0,0,0.06172839506172839,69.01234567901234,0)" xlink:href="#E"/><use transform="matrix(0.06172839506172839,0,0,0.06172839506172839,73.88888888888889,0)" xlink:href="#I"/><use transform="matrix(0.06172839506172839,0,0,0.06172839506172839,86.23456790123457,0)" xlink:href="#J"/><use transform="matrix(0.06172839506172839,0,0,0.06172839506172839,98.58024691358025,0)" xlink:href="#O"/></g><path fill="#333" d="M232-93c-1 65-40 97-104 97C67 4 28-28 28-90v-158h33c8 89-33 224 67 224 102 0 64-133 71-224h33v155" id="Y"/><path fill="#333" d="M33 0v-248h34V0H33" id="Z"/><g id="j"><use transform="matrix(0.06172839506172839,0,0,0.06172839506172839,0,0)" xlink:href="#Y"/><use transform="matrix(0.06172839506172839,0,0,0.06172839506172839,15.987654320987653,0)" xlink:href="#Z"/></g><path fill="#333" d="M206 0h-36l-40-164L89 0H53L-1-190h32L70-26l43-164h34l41 164 42-164h31" id="aa"/><path fill="#333" d="M115-194c53 0 69 39 70 98 0 66-23 100-70 100C84 3 66-7 56-30L54 0H23l1-261h32v101c10-23 28-34 59-34zm-8 174c40 0 45-34 45-75 0-40-5-75-45-74-42 0-51 32-51 76 0 43 10 73 51 73" id="ab"/><g id="k"><use transform="matrix(0.06172839506172839,0,0,0.06172839506172839,0,0)" xlink:href="#aa"/><use transform="matrix(0.06172839506172839,0,0,0.06172839506172839,15.987654320987653,0)" xlink:href="#N"/><use transform="matrix(0.06172839506172839,0,0,0.06172839506172839,28.333333333333332,0)" xlink:href="#ab"/><use transform="matrix(0.06172839506172839,0,0,0.06172839506172839,40.67901234567901,0)" xlink:href="#O"/><use transform="matrix(0.06172839506172839,0,0,0.06172839506172839,51.79012345679013,0)" xlink:href="#N"/><use transform="matrix(0.06172839506172839,0,0,0.06172839506172839,64.13580246913581,0)" xlink:href="#L"/><use transform="matrix(0.06172839506172839,0,0,0.06172839506172839,71.4814814814815,0)" xlink:href="#Q"/><use transform="matrix(0.06172839506172839,0,0,0.06172839506172839,82.59259259259261,0)" xlink:href="#N"/><use transform="matrix(0.06172839506172839,0,0,0.06172839506172839,94.9382716049383,0)" xlink:href="#L"/></g><path fill="#333" d="M127-220V0H93v-220H8v-28h204v28h-85" id="ac"/><g id="l"><use transform="matrix(0.06172839506172839,0,0,0.06172839506172839,0,0)" xlink:href="#ac"/><use transform="matrix(0.06172839506172839,0,0,0.06172839506172839,12.28395061728395,0)" xlink:href="#aa"/><use transform="matrix(0.06172839506172839,0,0,0.06172839506172839,28.2716049382716,0)" xlink:href="#E"/><use transform="matrix(0.06172839506172839,0,0,0.06172839506172839,33.148148148148145,0)" xlink:href="#H"/><use transform="matrix(0.06172839506172839,0,0,0.06172839506172839,39.32098765432099,0)" xlink:href="#H"/><use transform="matrix(0.06172839506172839,0,0,0.06172839506172839,45.49382716049383,0)" xlink:href="#N"/><use transform="matrix(0.06172839506172839,0,0,0.06172839506172839,57.839506172839506,0)" xlink:href="#L"/></g><g id="m"><use transform="matrix(0.06172839506172839,0,0,0.06172839506172839,0,0)" xlink:href="#P"/><use transform="matrix(0.06172839506172839,0,0,0.06172839506172839,14.814814814814813,0)" xlink:href="#F"/><use transform="matrix(0.06172839506172839,0,0,0.06172839506172839,25.925925925925924,0)" xlink:href="#L"/><use transform="matrix(0.06172839506172839,0,0,0.06172839506172839,33.2716049382716,0)" xlink:href="#G"/><use transform="matrix(0.06172839506172839,0,0,0.06172839506172839,45.61728395061728,0)" xlink:href="#C"/><use transform="matrix(0.06172839506172839,0,0,0.06172839506172839,57.962962962962955,0)" xlink:href="#C"/><use transform="matrix(0.06172839506172839,0,0,0.06172839506172839,70.30864197530863,0)" xlink:href="#N"/><use transform="matrix(0.06172839506172839,0,0,0.06172839506172839,82.65432098765432,0)" xlink:href="#L"/></g><g id="n"><use transform="matrix(0.06172839506172839,0,0,0.06172839506172839,0,0)" xlink:href="#ac"/><use transform="matrix(0.06172839506172839,0,0,0.06172839506172839,12.716049382716047,0)" xlink:href="#L"/><use transform="matrix(0.06172839506172839,0,0,0.06172839506172839,20.061728395061728,0)" xlink:href="#G"/><use transform="matrix(0.06172839506172839,0,0,0.06172839506172839,32.407407407407405,0)" xlink:href="#E"/><use transform="matrix(0.06172839506172839,0,0,0.06172839506172839,37.28395061728395,0)" xlink:href="#J"/><use transform="matrix(0.06172839506172839,0,0,0.06172839506172839,49.629629629629626,0)" xlink:href="#E"/><use transform="matrix(0.06172839506172839,0,0,0.06172839506172839,54.50617283950617,0)" xlink:href="#J"/><use transform="matrix(0.06172839506172839,0,0,0.06172839506172839,66.85185185185185,0)" xlink:href="#T"/></g><path fill="#333" d="M30-248c118-7 216 8 213 122C240-48 200 0 122 0H30v-248zM63-27c89 8 146-16 146-99s-60-101-146-95v194" id="ad"/><g id="o"><use transform="matrix(0.06172839506172839,0,0,0.06172839506172839,0,0)" xlink:href="#ad"/><use transform="matrix(0.06172839506172839,0,0,0.06172839506172839,15.987654320987653,0)" xlink:href="#G"/><use transform="matrix(0.06172839506172839,0,0,0.06172839506172839,28.333333333333332,0)" xlink:href="#H"/><use transform="matrix(0.06172839506172839,0,0,0.06172839506172839,34.50617283950617,0)" xlink:href="#G"/></g><path fill="#333" d="M30 0v-248h187v28H63v79h144v27H63v87h162V0H30" id="ae"/><path fill="#333" d="M141 0L90-78 38 0H4l68-98-65-92h35l48 74 47-74h35l-64 92 68 98h-35" id="af"/><g id="p"><use transform="matrix(0.06172839506172839,0,0,0.06172839506172839,0,0)" xlink:href="#ae"/><use transform="matrix(0.06172839506172839,0,0,0.06172839506172839,14.814814814814813,0)" xlink:href="#af"/><use transform="matrix(0.06172839506172839,0,0,0.06172839506172839,25.925925925925924,0)" xlink:href="#C"/><use transform="matrix(0.06172839506172839,0,0,0.06172839506172839,38.2716049382716,0)" xlink:href="#I"/><use transform="matrix(0.06172839506172839,0,0,0.06172839506172839,50.61728395061728,0)" xlink:href="#L"/><use transform="matrix(0.06172839506172839,0,0,0.06172839506172839,57.962962962962955,0)" xlink:href="#H"/></g><g id="q"><use transform="matrix(0.06172839506172839,0,0,0.06172839506172839,0,0)" xlink:href="#ac"/><use transform="matrix(0.06172839506172839,0,0,0.06172839506172839,12.716049382716047,0)" xlink:href="#L"/><use transform="matrix(0.06172839506172839,0,0,0.06172839506172839,20.061728395061728,0)" xlink:href="#G"/><use transform="matrix(0.06172839506172839,0,0,0.06172839506172839,32.407407407407405,0)" xlink:href="#E"/><use transform="matrix(0.06172839506172839,0,0,0.06172839506172839,37.28395061728395,0)" xlink:href="#J"/><use transform="matrix(0.06172839506172839,0,0,0.06172839506172839,49.629629629629626,0)" xlink:href="#E"/><use transform="matrix(0.06172839506172839,0,0,0.06172839506172839,54.50617283950617,0)" xlink:href="#J"/><use transform="matrix(0.06172839506172839,0,0,0.06172839506172839,66.85185185185185,0)" xlink:href="#T"/></g><g id="r"><use transform="matrix(0.06172839506172839,0,0,0.06172839506172839,0,0)" xlink:href="#ad"/><use transform="matrix(0.06172839506172839,0,0,0.06172839506172839,15.987654320987653,0)" xlink:href="#G"/><use transform="matrix(0.06172839506172839,0,0,0.06172839506172839,28.333333333333332,0)" xlink:href="#H"/><use transform="matrix(0.06172839506172839,0,0,0.06172839506172839,34.50617283950617,0)" xlink:href="#G"/></g><g id="s"><use transform="matrix(0.06172839506172839,0,0,0.06172839506172839,0,0)" xlink:href="#ac"/><use transform="matrix(0.06172839506172839,0,0,0.06172839506172839,12.28395061728395,0)" xlink:href="#aa"/><use transform="matrix(0.06172839506172839,0,0,0.06172839506172839,28.2716049382716,0)" xlink:href="#E"/><use transform="matrix(0.06172839506172839,0,0,0.06172839506172839,33.148148148148145,0)" xlink:href="#H"/><use transform="matrix(0.06172839506172839,0,0,0.06172839506172839,39.32098765432099,0)" xlink:href="#H"/><use transform="matrix(0.06172839506172839,0,0,0.06172839506172839,45.49382716049383,0)" xlink:href="#N"/><use transform="matrix(0.06172839506172839,0,0,0.06172839506172839,57.839506172839506,0)" xlink:href="#L"/></g><g id="t"><use transform="matrix(0.06172839506172839,0,0,0.06172839506172839,0,0)" xlink:href="#B"/><use transform="matrix(0.06172839506172839,0,0,0.06172839506172839,14.814814814814813,0)" xlink:href="#V"/><use transform="matrix(0.06172839506172839,0,0,0.06172839506172839,29.629629629629626,0)" xlink:href="#Z"/></g><path fill="#333" d="M30 0v-248h33v221h125V0H30" id="ag"/><g id="u"><use transform="matrix(0.06172839506172839,0,0,0.06172839506172839,0,0)" xlink:href="#ag"/><use transform="matrix(0.06172839506172839,0,0,0.06172839506172839,12.345679012345679,0)" xlink:href="#I"/><use transform="matrix(0.06172839506172839,0,0,0.06172839506172839,24.691358024691358,0)" xlink:href="#G"/><use transform="matrix(0.06172839506172839,0,0,0.06172839506172839,37.03703703703704,0)" xlink:href="#W"/></g><path fill="#333" d="M160-131c35 5 61 23 61 61C221 17 115-2 30 0v-248c76 3 177-17 177 60 0 33-19 50-47 57zm-97-11c50-1 110 9 110-42 0-47-63-36-110-37v79zm0 115c55-2 124 14 124-45 0-56-70-42-124-44v89" id="ah"/><g id="v"><use transform="matrix(0.06172839506172839,0,0,0.06172839506172839,0,0)" xlink:href="#ah"/><use transform="matrix(0.06172839506172839,0,0,0.06172839506172839,14.814814814814813,0)" xlink:href="#G"/><use transform="matrix(0.06172839506172839,0,0,0.06172839506172839,27.160493827160494,0)" xlink:href="#D"/><use transform="matrix(0.06172839506172839,0,0,0.06172839506172839,32.03703703703704,0)" xlink:href="#G"/><use transform="matrix(0.06172839506172839,0,0,0.06172839506172839,44.382716049382715,0)" xlink:href="#J"/><use transform="matrix(0.06172839506172839,0,0,0.06172839506172839,56.72839506172839,0)" xlink:href="#F"/><use transform="matrix(0.06172839506172839,0,0,0.06172839506172839,67.8395061728395,0)" xlink:href="#N"/><use transform="matrix(0.06172839506172839,0,0,0.06172839506172839,80.18518518518519,0)" xlink:href="#L"/></g><g id="w"><use transform="matrix(0.06172839506172839,0,0,0.06172839506172839,0,0)" xlink:href="#B"/><use transform="matrix(0.06172839506172839,0,0,0.06172839506172839,14.814814814814813,0)" xlink:href="#F"/><use transform="matrix(0.06172839506172839,0,0,0.06172839506172839,25.925925925925924,0)" xlink:href="#F"/><use transform="matrix(0.06172839506172839,0,0,0.06172839506172839,37.03703703703704,0)" xlink:href="#I"/><use transform="matrix(0.06172839506172839,0,0,0.06172839506172839,49.382716049382715,0)" xlink:href="#R"/><use transform="matrix(0.06172839506172839,0,0,0.06172839506172839,61.72839506172839,0)" xlink:href="#J"/><use transform="matrix(0.06172839506172839,0,0,0.06172839506172839,74.07407407407408,0)" xlink:href="#H"/></g><g id="x"><use transform="matrix(0.06172839506172839,0,0,0.06172839506172839,0,0)" xlink:href="#S"/><use transform="matrix(0.06172839506172839,0,0,0.06172839506172839,18.456790123456788,0)" xlink:href="#I"/><use transform="matrix(0.06172839506172839,0,0,0.06172839506172839,30.80246913580247,0)" xlink:href="#W"/><use transform="matrix(0.06172839506172839,0,0,0.06172839506172839,43.148148148148145,0)" xlink:href="#N"/><use transform="matrix(0.06172839506172839,0,0,0.06172839506172839,55.49382716049382,0)" xlink:href="#D"/></g><g id="y"><use transform="matrix(0.06172839506172839,0,0,0.06172839506172839,0,0)" xlink:href="#P"/><use transform="matrix(0.06172839506172839,0,0,0.06172839506172839,14.814814814814813,0)" xlink:href="#H"/><use transform="matrix(0.06172839506172839,0,0,0.06172839506172839,20.98765432098765,0)" xlink:href="#I"/><use transform="matrix(0.06172839506172839,0,0,0.06172839506172839,33.33333333333333,0)" xlink:href="#L"/><use transform="matrix(0.06172839506172839,0,0,0.06172839506172839,40.679012345679006,0)" xlink:href="#G"/><use transform="matrix(0.06172839506172839,0,0,0.06172839506172839,53.02469135802468,0)" xlink:href="#T"/><use transform="matrix(0.06172839506172839,0,0,0.06172839506172839,65.37037037037037,0)" xlink:href="#N"/></g><g id="z"><use transform="matrix(0.06172839506172839,0,0,0.06172839506172839,0,0)" xlink:href="#V"/><use transform="matrix(0.06172839506172839,0,0,0.06172839506172839,14.814814814814813,0)" xlink:href="#L"/><use transform="matrix(0.06172839506172839,0,0,0.06172839506172839,22.160493827160494,0)" xlink:href="#N"/><use transform="matrix(0.06172839506172839,0,0,0.06172839506172839,34.50617283950617,0)" xlink:href="#W"/><use transform="matrix(0.06172839506172839,0,0,0.06172839506172839,46.85185185185185,0)" xlink:href="#E"/><use transform="matrix(0.06172839506172839,0,0,0.06172839506172839,51.72839506172839,0)" xlink:href="#F"/><use transform="matrix(0.06172839506172839,0,0,0.06172839506172839,62.839506172839506,0)" xlink:href="#H"/><use transform="matrix(0.06172839506172839,0,0,0.06172839506172839,69.01234567901234,0)" xlink:href="#E"/><use transform="matrix(0.06172839506172839,0,0,0.06172839506172839,73.88888888888889,0)" xlink:href="#I"/><use transform="matrix(0.06172839506172839,0,0,0.06172839506172839,86.23456790123457,0)" xlink:href="#J"/><use transform="matrix(0.06172839506172839,0,0,0.06172839506172839,98.58024691358025,0)" xlink:href="#O"/></g><path fill="#333" d="M212-179c-10-28-35-45-73-45-59 0-87 40-87 99 0 60 29 101 89 101 43 0 62-24 78-52l27 14C228-24 195 4 139 4 59 4 22-46 18-125c-6-104 99-153 187-111 19 9 31 26 39 46" id="ai"/><path fill="#333" d="M153-248C145-148 188 4 80 4 36 3 13-21 6-62l32-5c4 25 16 42 43 43 27 0 39-20 39-49v-147H72v-28h81" id="aj"/><g id="A"><use transform="matrix(0.06172839506172839,0,0,0.06172839506172839,0,0)" xlink:href="#ai"/><use transform="matrix(0.06172839506172839,0,0,0.06172839506172839,15.987654320987653,0)" xlink:href="#L"/><use transform="matrix(0.06172839506172839,0,0,0.06172839506172839,23.333333333333332,0)" xlink:href="#I"/><use transform="matrix(0.06172839506172839,0,0,0.06172839506172839,35.67901234567901,0)" xlink:href="#J"/><use transform="matrix(0.06172839506172839,0,0,0.06172839506172839,48.02469135802469,0)" xlink:href="#aj"/><use transform="matrix(0.06172839506172839,0,0,0.06172839506172839,59.1358024691358,0)" xlink:href="#I"/><use transform="matrix(0.06172839506172839,0,0,0.06172839506172839,71.48148148148148,0)" xlink:href="#ab"/></g></defs></g></svg>